<?xml version="1.0" encoding="utf-8"?>
<!-- Generator: Adobe Illustrator 16.0.3, SVG Export Plug-In . SVG Version: 6.00 Build 0)  -->
<!DOCTYPE svg PUBLIC "-//W3C//DTD SVG 1.1//EN" "http://www.w3.org/Graphics/SVG/1.1/DTD/svg11.dtd">
<svg version="1.1" id="Capa_1" xmlns="http://www.w3.org/2000/svg" xmlns:xlink="http://www.w3.org/1999/xlink" x="0px" y="0px"
	 width="500px" height="500px" viewBox="0 0 500 500" enable-background="new 0 0 500 500" xml:space="preserve">
<g>
	<path fill="#FFFF6A" d="M390.343,384.587c-9.227,0-16.706,7.479-16.706,16.705s7.479,16.706,16.706,16.706
		s16.706-7.479,16.706-16.706S399.569,384.587,390.343,384.587z M400.139,406.477c-0.109,0.357-0.22,0.79-0.493,1.262
		c-0.255,0.464-0.493,1.08-0.925,1.58c-0.203,0.27-0.414,0.551-0.634,0.841c-0.212,0.302-0.521,0.527-0.794,0.81
		c-0.547,0.571-1.255,1.021-1.992,1.492c-0.375,0.223-0.795,0.381-1.207,0.569c-0.407,0.207-0.854,0.323-1.307,0.434
		c-0.892,0.28-1.854,0.325-2.799,0.354l-1.419-0.115c-0.465-0.081-0.918-0.216-1.369-0.326c-0.46-0.087-0.868-0.313-1.286-0.484
		c-0.417-0.177-0.824-0.354-1.179-0.614c-0.364-0.24-0.729-0.462-1.063-0.707c-0.306-0.277-0.604-0.55-0.895-0.814
		c-0.604-0.499-0.98-1.152-1.398-1.664c-0.403-0.527-0.64-1.104-0.894-1.566c-0.27-0.454-0.375-0.921-0.501-1.276
		c-0.23-0.722-0.322-1.136-0.322-1.136s0.329,0.301,0.834,0.828c0.258,0.259,0.533,0.595,0.921,0.913
		c0.388,0.315,0.761,0.717,1.231,1.072c0.237,0.173,0.483,0.352,0.739,0.537c0.123,0.094,0.248,0.188,0.376,0.285
		c0.139,0.079,0.279,0.159,0.422,0.241c0.276,0.166,0.56,0.337,0.85,0.512c0.304,0.137,0.614,0.275,0.931,0.417
		c0.305,0.159,0.636,0.263,0.971,0.36c0.337,0.087,0.655,0.247,1.008,0.284c0.344,0.063,0.69,0.128,1.038,0.193l0.076,0.005v-9.881
		c-0.099-0.064-0.196-0.129-0.296-0.193c-1.265-0.818-2.506-1.655-3.638-2.588c-0.829-0.684-1.603-1.394-2.157-2.233
		c-0.586-0.898-0.821-1.834-0.504-2.824c0.529-1.604,2.55-2.692,4.675-2.519c1.444,0.118,2.604,1.951,3.342,4.134
		c0.019-1.231,3.224-4.394,5.04-4.043c1.711,0.331,3.037,1.498,3.241,2.862c0.143,0.941-0.166,1.804-0.763,2.616
		c-0.646,0.88-1.515,1.626-2.42,2.347c-1.104,0.873-2.312,1.656-3.521,2.443v9.763c0.026-0.006,0.053-0.009,0.079-0.015
		c0.7-0.086,1.348-0.356,2.001-0.555c0.615-0.295,1.253-0.527,1.787-0.896c0.579-0.303,1.07-0.685,1.544-1.035
		c0.498-0.335,0.836-0.725,1.223-1.038c0.374-0.308,0.684-0.65,0.931-0.927c0.505-0.545,0.824-0.84,0.824-0.84
		S400.354,405.765,400.139,406.477z"/>
	<g>
		<path fill="#FFD332" d="M237.784,120.373c0.214-0.052,0.429-0.089,0.644-0.138l-0.552-3.639c-0.045,0.006-0.091,0.01-0.136,0.017
			l-0.002,1.479C237.737,118.853,237.756,119.613,237.784,120.373z"/>
		<path fill="#FFD332" d="M245.962,119.328c0.135-0.002,0.27-0.013,0.404-0.013l6.52,0.009c0.778,0.001,1.563,0.037,2.35,0.094
			l0.2-3.381c-1.933-0.142-3.877-0.235-5.841-0.248c-1.284-0.002-2.558,0.037-3.827,0.094L245.962,119.328z"/>
		<path fill="#FFD332" d="M224.656,255.254c-0.912-0.09-1.81-0.231-2.695-0.406l-11.21,21.642c2.938,1.506,5.976,2.846,9.1,4.008
			l3.871-10.202C224.028,265.283,224.344,260.199,224.656,255.254z"/>
		<path fill="#FFD332" d="M209.979,249.127l-14.326,17.452c2.563,2.099,5.25,4.05,8.051,5.843l12.507-19.42
			C213.998,252.012,211.913,250.717,209.979,249.127z"/>
		<path fill="#FFD332" d="M201.662,238.785l-18.712,14.946c2.07,2.597,4.29,5.068,6.646,7.405l16.13-16.252
			C204.233,243.066,202.88,241.017,201.662,238.785z"/>
		<path fill="#FFD332" d="M196.923,226.629l-23.657,11.854c1.479,2.983,3.126,5.865,4.932,8.637l20.942-13.711
			C198.287,231.269,197.553,228.997,196.923,226.629z"/>
		<path fill="#FFD332" d="M194.777,214.317l-27.762,7.24c0.813,3.237,1.809,6.4,2.979,9.478l25.688-9.972
			C195.29,218.878,194.988,216.625,194.777,214.317z"/>
		<path fill="#FFD332" d="M194.506,202.348l-29.992,1.37c0.113,3.344,0.424,6.637,0.913,9.873l29.019-4.708
			C194.386,206.739,194.408,204.557,194.506,202.348z"/>
		<path fill="#FFD332" d="M196.216,190.823l-30.428-5.029c-0.573,3.215-0.965,6.492-1.166,9.822l30.366,1.477
			C195.291,194.917,195.708,192.824,196.216,190.823z"/>
		<path fill="#FFD332" d="M200.013,180.028l-29.224-11.443c-1.241,3.026-2.317,6.138-3.207,9.327l30.115,7.948
			C198.417,183.771,199.202,181.816,200.013,180.028z"/>
		<path fill="#FFD332" d="M197.677,172.934l0.102-0.6l2.22-5.812l-20.725-13.657c-1.848,2.699-3.541,5.509-5.074,8.419
			l23.457,11.841C197.666,173.06,197.666,173,197.677,172.934z"/>
		<path fill="#FFD332" d="M204.926,153.62l-14.124-14.315c-2.363,2.254-4.595,4.645-6.687,7.156l18.016,14.477L204.926,153.62z"/>
		<path fill="#FFD332" d="M208.409,144.5c-1.454-3.692-2.349-8.284-2.34-14.003c0-0.035,0.003-0.072,0.003-0.106l-1.231-1.925
			c-2.774,1.716-5.446,3.583-7.997,5.596l10.594,12.982L208.409,144.5z"/>
		<path fill="#FFD332" d="M291.16,143.532l1.606,4.751l10.654-12.978c-2.464-2.04-5.059-3.926-7.745-5.682l-2.641,4.099
			C292.797,137.523,292.14,140.768,291.16,143.532z"/>
		<path fill="#FFD332" d="M297.488,162.246l18.152-14.499c-2.004-2.501-4.135-4.896-6.403-7.154l-14.225,14.332L297.488,162.246z"/>
		<path fill="#FFD332" d="M301.326,173.597l0.079,0.49c0.01,0.062,0.011,0.117,0.019,0.177l23.665-11.858
			c-1.456-2.865-3.062-5.641-4.82-8.308l-20.907,13.689L301.326,173.597z"/>
		<path fill="#FFD332" d="M301.509,186.485l29.841-7.781c-0.84-3.118-1.855-6.162-3.03-9.128l-28.983,11.251
			C300.103,182.572,300.837,184.47,301.509,186.485z"/>
		<path fill="#FFD332" d="M304.04,197.344l30.084-1.374c-0.183-3.244-0.558-6.435-1.094-9.572l-30.136,4.889
			C303.371,193.225,303.76,195.247,304.04,197.344z"/>
		<path fill="#FFD332" d="M304.546,208.726l28.775,4.755c0.472-3.151,0.756-6.364,0.872-9.619l-29.703-1.445
			C304.579,204.548,304.603,206.656,304.546,208.726z"/>
		<path fill="#FFD332" d="M303.38,220.505l25.538,10c1.125-3.008,2.074-6.101,2.854-9.26l-27.544-7.269
			C304.031,216.208,303.748,218.386,303.38,220.505z"/>
		<path fill="#FFD332" d="M300.154,232.525l20.887,13.763c1.735-2.729,3.337-5.55,4.757-8.478l-23.568-11.897
			C301.643,228.218,300.95,230.427,300.154,232.525z"/>
		<path fill="#FFD332" d="M294.003,243.9l16.044,16.262c2.274-2.327,4.414-4.782,6.41-7.355l-18.646-14.984
			C296.673,240.035,295.399,242.064,294.003,243.9z"/>
		<path fill="#FFD332" d="M284.145,252.396l12.237,19.123c2.722-1.817,5.323-3.798,7.812-5.907l-14.152-17.343
			C288.217,249.923,286.244,251.305,284.145,252.396z"/>
		<path fill="#FFD332" d="M273.256,255.396c0.028,1.725,0.059,3.449,0.089,5.17l7.234,19.23c3.063-1.216,6.047-2.585,8.922-4.134
			l-10.869-21.135C276.896,254.986,275.102,255.28,273.256,255.396z"/>
	</g>
	<g>
		<path fill="#FFFF6A" d="M238.313,120.251c2.513-0.571,5.029-0.888,7.533-0.918l-0.199-3.444c-0.652,0.031-1.304,0.061-1.952,0.106
			c-0.094,0.006-0.187,0.012-0.28,0.018c-1.904,0.139-3.79,0.342-5.658,0.6L238.313,120.251z"/>
		<path fill="#FFFF6A" d="M261.39,118.11v-1.41c-2.006-0.287-4.027-0.524-6.075-0.671l-0.195,3.381
			c2.057,0.145,4.139,0.468,6.221,0.96C261.37,119.62,261.39,118.87,261.39,118.11z"/>
		<path fill="#FFFF6A" d="M219.972,280.54c1.056,0.391,2.121,0.762,3.196,1.111c0.209-3.663,0.432-7.47,0.66-11.318L219.972,280.54z
			"/>
		<path fill="#FFFF6A" d="M216.292,253.051l-12.479,19.438c2.282,1.456,4.63,2.819,7.053,4.057l11.179-21.658
			C220.049,254.496,218.13,253.871,216.292,253.051z"/>
		<path fill="#FFFF6A" d="M207.34,246.7c-0.53-0.557-1.043-1.144-1.544-1.751l-16.106,16.276c1.93,1.909,3.959,3.715,6.064,5.434
			l14.301-17.473C209.117,248.417,208.203,247.604,207.34,246.7z"/>
		<path fill="#FFFF6A" d="M199.191,233.483l-20.922,13.743c1.488,2.276,3.069,4.485,4.763,6.604l18.689-14.974
			C200.798,237.167,199.949,235.377,199.191,233.483z"/>
		<path fill="#FFFF6A" d="M195.717,221.143l-25.673,10.009c0.974,2.545,2.077,5.024,3.281,7.444l23.64-11.89
			C196.483,224.908,196.064,223.054,195.717,221.143z"/>
		<path fill="#FFFF6A" d="M194.461,208.964l-29.012,4.751c0.411,2.697,0.942,5.355,1.601,7.963l27.751-7.28
			C194.635,212.616,194.515,210.806,194.461,208.964z"/>
		<path fill="#FFFF6A" d="M194.53,201.81c0.079-1.585,0.249-3.124,0.457-4.638l-30.369-1.432c-0.099,1.677-0.157,3.364-0.157,5.065
			c0,1.018,0.026,2.029,0.062,3.038l29.989-1.414C194.521,202.222,194.52,202.018,194.53,201.81z"/>
		<path fill="#FFFF6A" d="M197.679,185.937l-30.126-7.904c-0.717,2.581-1.311,5.211-1.783,7.884l30.436,4.984
			C196.642,189.172,197.137,187.516,197.679,185.937z"/>
		<path fill="#FFFF6A" d="M200.14,179.75c-0.39-0.28-0.75-0.62-1.069-0.99c-0.879-1.044-1.834-2.858-1.451-5.559l-23.474-11.806
			c-1.244,2.372-2.38,4.809-3.399,7.306l29.24,11.4C200.038,179.987,200.088,179.863,200.14,179.75z"/>
		<path fill="#FFFF6A" d="M202.076,161.007l-18.037-14.45c-1.708,2.058-3.32,4.197-4.832,6.412l20.744,13.626L202.076,161.007z"/>
		<path fill="#FFFF6A" d="M207.362,147.105l-10.613-12.967c-2.093,1.657-4.106,3.41-6.034,5.253l14.146,14.294L207.362,147.105z"/>
		<path fill="#FFFF6A" d="M206.051,127.72c-0.442,0.263-0.876,0.54-1.313,0.811l1.234,1.923
			C205.975,129.564,206.004,128.65,206.051,127.72z"/>
		<path fill="#FFFF6A" d="M292.94,133.658l2.634-4.103c-0.856-0.558-1.731-1.088-2.607-1.616c0.041,0.889,0.073,1.77,0.073,2.62
			C293.04,131.636,293.001,132.662,292.94,133.658z"/>
		<path fill="#FFFF6A" d="M294.949,154.857l14.203-14.353c-1.859-1.846-3.801-3.609-5.824-5.278l-10.635,12.993L294.949,154.857z"/>
		<path fill="#FFFF6A" d="M299.316,167.712l20.887-13.72c-1.449-2.188-2.998-4.303-4.637-6.343l-18.131,14.525L299.316,167.712z"/>
		<path fill="#FFFF6A" d="M299.96,179.71c-0.24,0.28-0.49,0.53-0.77,0.76c0.041,0.091,0.079,0.191,0.12,0.283l28.967-11.293
			c-0.973-2.447-2.054-4.836-3.241-7.166l-23.647,11.893C301.777,176.884,300.83,178.673,299.96,179.71z"/>
		<path fill="#FFFF6A" d="M302.885,191.208l30.128-4.934c-0.449-2.606-1.011-5.173-1.692-7.692l-29.829,7.825
			C302.004,187.939,302.473,189.541,302.885,191.208z"/>
		<path fill="#FFFF6A" d="M304.48,201.81c0.009,0.177,0.008,0.35,0.016,0.526l29.705,1.401c0.033-0.979,0.074-1.955,0.074-2.941
			c0-1.663-0.061-3.312-0.154-4.951l-30.082,1.418C304.24,198.748,304.403,200.256,304.48,201.81z"/>
		<path fill="#FFFF6A" d="M304.252,213.896l27.555,7.229c0.627-2.547,1.146-5.135,1.537-7.766l-28.782-4.713
			C304.516,210.424,304.402,212.171,304.252,213.896z"/>
		<path fill="#FFFF6A" d="M302.271,225.835l23.586,11.862c1.148-2.376,2.183-4.817,3.109-7.31l-25.553-9.962
			C303.095,222.279,302.714,224.084,302.271,225.835z"/>
		<path fill="#FFFF6A" d="M297.869,237.751l18.668,14.956c1.624-2.099,3.149-4.275,4.574-6.524l-20.906-13.732
			C299.505,234.309,298.726,236.08,297.869,237.751z"/>
		<path fill="#FFFF6A" d="M291.67,246.7c-0.504,0.528-1.025,1.027-1.555,1.509l14.178,17.322c2.033-1.729,3.984-3.55,5.846-5.459
			l-16.068-16.238C293.304,244.845,292.512,245.815,291.67,246.7z"/>
		<path fill="#FFFF6A" d="M278.715,254.484l10.9,21.118c2.361-1.277,4.654-2.665,6.875-4.152l-12.266-19.104
			C282.472,253.261,280.631,253.975,278.715,254.484z"/>
		<path fill="#FFFF6A" d="M273.896,282.118c2.31-0.7,4.582-1.481,6.804-2.368l-7.263-19.22
			C273.58,268.033,273.735,275.427,273.896,282.118z"/>
	</g>
	<g>
		<polygon fill="#9027E2" points="91.29,365.01 94.846,365.01 94.846,347.239 99.586,347.239 99.586,343.684 86.55,343.684 
			86.55,347.239 91.29,347.239 		"/>
		<rect x="111.97" y="343.683" fill="#9027E2" width="3.555" height="21.327"/>
		<polygon fill="#9027E2" points="141.217,361.453 131.489,361.453 131.489,356.129 139.734,356.129 139.734,352.573 
			131.489,352.573 131.489,347.239 141.217,347.239 141.217,343.684 127.935,343.684 127.935,365.009 141.217,365.009 		"/>
		<polygon fill="#9027E2" points="153.603,343.607 153.603,365.01 157.158,365.01 157.158,352.056 170.491,365.091 170.491,343.683 
			166.937,343.683 166.937,356.643 		"/>
		<path fill="#9027E2" d="M182.897,343.683v21.33h6.229c5.889,0,10.663-4.774,10.663-10.664s-4.774-10.665-10.663-10.665v-0.001
			H182.897z M196.234,354.348c0,3.926-3.183,7.108-7.108,7.108h-2.673v-14.218h2.673
			C193.052,347.238,196.234,350.421,196.234,354.348z"/>
		<path fill="#9027E2" d="M209.093,365.009h3.854l1.481-3.538h7.291l1.474,3.538h3.852l-8.948-21.491L209.093,365.009z
			 M215.919,357.915l2.167-5.173l2.154,5.173H215.919z"/>
		<path fill="#9027E2" d="M244.777,361.373h-0.94c-1.161,0.004-2.155-0.83-2.354-1.975l-3.503,0.609
			c0.492,2.849,2.966,4.927,5.856,4.921h0.94c3.281-0.003,5.94-2.663,5.944-5.944v-0.102c-0.009-2.476-1.542-4.689-3.857-5.566
			l-3.866-1.452c-1.082-0.405-1.719-1.526-1.513-2.663s1.196-1.964,2.352-1.963h0.94c0.912-0.003,1.746,0.517,2.146,1.337
			l3.189-1.57c-0.993-2.04-3.066-3.33-5.335-3.322h-0.94c-2.874,0-5.336,2.056-5.849,4.884s1.07,5.618,3.761,6.627l3.867,1.452
			c0.931,0.353,1.547,1.242,1.55,2.237v0.102C247.165,360.304,246.096,361.372,244.777,361.373z"/>
		<path fill="#9027E2" d="M109.798,405.063h10.225v9.068c-7.05,5.451-17.134,4.427-22.944-2.33
			c-5.811-6.758-5.313-16.882,1.131-23.038c6.444-6.155,16.58-6.188,23.063-0.071l5.744-6.088c-9.963-9.4-25.619-9.086-35.195,0.707
			c-9.577,9.793-9.545,25.454,0.073,35.207s25.276,10.002,35.199,0.56l1.3-1.237v-21.148h-18.595V405.063z"/>
		<path fill="#9027E2" d="M164.458,407.436c0,5.635-4.567,10.203-10.201,10.203c-5.635,0-10.202-4.568-10.202-10.203v-31.683h-8.369
			v31.683c0,10.258,8.314,18.574,18.571,18.574s18.571-8.316,18.571-18.574v-31.683h-8.37V407.436z"/>
		<path fill="#9027E2" d="M180.141,425.961h9.075l3.487-8.329h17.165l3.469,8.329h9.067l-21.066-50.598L180.141,425.961z
			 M196.212,409.261l5.103-12.179l5.071,12.179H196.212z"/>
		<polygon fill="#9027E2" points="261.099,406.265 229.707,375.576 229.707,425.963 238.077,425.963 238.077,395.465 
			269.469,426.154 269.469,375.753 261.099,375.753 		"/>
		<path fill="#9027E2" d="M276.791,425.961h9.075l3.487-8.329h17.165l3.469,8.329h9.067l-21.066-50.598L276.791,425.961z
			 M292.862,409.261l5.103-12.179l5.071,12.179H292.862z"/>
		<path fill="#9027E2" d="M332.249,412.611c-6.406-6.496-6.429-16.928-0.05-23.451s16.808-6.733,23.444-0.473l5.744-6.088
			c-9.956-9.394-25.602-9.079-35.171,0.708c-9.57,9.786-9.537,25.437,0.074,35.182c9.611,9.746,25.258,9.994,35.174,0.559
			l-5.771-6.063C349.085,419.273,338.656,419.107,332.249,412.611z"/>
		<path fill="#9027E2" d="M390.232,375.753c-13.868,0-25.109,11.243-25.109,25.112s11.241,25.112,25.109,25.112
			c13.867,0,25.109-11.243,25.109-25.112C415.326,387.002,404.094,375.768,390.232,375.753z M390.232,417.606
			c-9.245,0-16.74-7.495-16.74-16.741s7.495-16.741,16.74-16.741c9.244,0,16.739,7.495,16.739,16.741
			C406.962,410.107,399.473,417.598,390.232,417.606z"/>
		<path fill="#9027E2" d="M399.627,405.957c-0.247,0.276-0.557,0.619-0.931,0.927c-0.387,0.313-0.725,0.703-1.223,1.038
			c-0.474,0.351-0.965,0.732-1.544,1.035c-0.534,0.368-1.172,0.601-1.787,0.896c-0.653,0.198-1.301,0.469-2.001,0.555
			c-0.026,0.006-0.053,0.009-0.079,0.015v-9.763c1.209-0.787,2.416-1.57,3.521-2.443c0.905-0.721,1.774-1.467,2.42-2.347
			c0.597-0.813,0.905-1.675,0.763-2.616c-0.204-1.364-1.53-2.531-3.241-2.862c-1.816-0.351-5.021,2.812-5.04,4.043
			c0.017,0.027,0.078,0.721,0,0c-0.737-2.183-1.897-4.016-3.342-4.134c-2.125-0.174-4.146,0.914-4.675,2.519
			c-0.317,0.99-0.082,1.926,0.504,2.824c0.555,0.84,1.328,1.55,2.157,2.233c1.132,0.933,2.373,1.77,3.638,2.588
			c0.1,0.064,0.197,0.129,0.296,0.193v9.881l-0.076-0.005c-0.348-0.065-0.694-0.13-1.038-0.193
			c-0.353-0.037-0.671-0.197-1.008-0.284c-0.335-0.098-0.666-0.201-0.971-0.36c-0.316-0.142-0.627-0.28-0.931-0.417
			c-0.29-0.175-0.573-0.346-0.85-0.512c-0.143-0.082-0.283-0.162-0.422-0.241c-0.128-0.097-0.253-0.191-0.376-0.285
			c-0.256-0.186-0.502-0.364-0.739-0.537c-0.471-0.355-0.844-0.757-1.231-1.072c-0.388-0.318-0.663-0.654-0.921-0.913
			c-0.505-0.527-0.834-0.828-0.834-0.828s0.092,0.414,0.322,1.136c0.126,0.355,0.231,0.822,0.501,1.276
			c0.254,0.463,0.49,1.039,0.894,1.566c0.418,0.512,0.795,1.165,1.398,1.664c0.291,0.265,0.589,0.537,0.895,0.814
			c0.334,0.245,0.698,0.467,1.063,0.707c0.354,0.26,0.762,0.438,1.179,0.614c0.418,0.171,0.826,0.397,1.286,0.484
			c0.451,0.11,0.904,0.245,1.369,0.326l1.419,0.115c0.945-0.028,1.907-0.073,2.799-0.354c0.453-0.11,0.899-0.227,1.307-0.434
			c0.412-0.188,0.832-0.347,1.207-0.569c0.737-0.472,1.445-0.921,1.992-1.492c0.273-0.282,0.582-0.508,0.794-0.81
			c0.22-0.29,0.431-0.571,0.634-0.841c0.432-0.5,0.67-1.116,0.925-1.58c0.273-0.472,0.384-0.904,0.493-1.262
			c0.216-0.712,0.31-1.136,0.31-1.136S400.132,405.412,399.627,405.957z"/>
		<path fill="#9027E2" d="M236.01,215.149c0.33,0.659,0.648,1.466,1.179,2.231c0.277,0.38,0.565,0.775,0.863,1.185
			c0.151,0.206,0.311,0.413,0.479,0.617c0.188,0.187,0.379,0.376,0.572,0.568c0.39,0.387,0.811,0.767,1.238,1.166
			c0.464,0.353,0.974,0.67,1.482,1.015c0.261,0.161,0.504,0.362,0.79,0.49c0.286,0.13,0.574,0.261,0.863,0.393
			c0.588,0.249,1.162,0.57,1.811,0.697c0.637,0.16,1.276,0.354,1.933,0.467c0.667,0.056,1.337,0.111,2.007,0.167
			c1.336-0.042,2.697-0.107,3.956-0.511c0.64-0.158,1.268-0.329,1.841-0.624c0.579-0.271,1.17-0.5,1.694-0.821
			c1.032-0.675,2.017-1.325,2.771-2.141c0.379-0.403,0.801-0.73,1.094-1.158c0.304-0.416,0.6-0.808,0.866-1.194
			c0.568-0.728,0.896-1.596,1.228-2.259c0.353-0.68,0.479-1.286,0.607-1.79c0.257-1.004,0.353-1.607,0.353-1.607
			s-0.472,0.387-1.21,1.114c-0.36,0.368-0.813,0.829-1.353,1.223c-0.254,0.209-0.524,0.431-0.81,0.665
			c-0.144,0.112-0.269,0.239-0.423,0.352c-0.161,0.107-0.327,0.217-0.496,0.33c-0.661,0.455-1.333,0.963-2.132,1.345
			c-0.734,0.478-1.603,0.767-2.432,1.146c-0.747,0.209-1.485,0.483-2.261,0.627v-13.22c1.52-0.99,3.023-1.986,4.412-3.084
			c1.246-0.993,2.443-2.021,3.332-3.23c0.821-1.12,1.247-2.306,1.051-3.603c-0.281-1.878-2.107-3.485-4.463-3.94
			c-2.501-0.484-5.506,3.964-6.94,5.566c0.023,0.037,0.108,0.992,0,0c-1.016-3.005-2.612-5.53-4.602-5.693
			c-2.926-0.239-5.707,1.258-6.437,3.468c-0.437,1.364-0.112,2.652,0.694,3.89c0.764,1.156,1.829,2.133,2.97,3.075
			c1.551,1.276,3.25,2.423,4.982,3.545v13.385c-0.332-0.06-0.664-0.119-0.992-0.178c-0.47-0.043-0.896-0.254-1.348-0.362
			c-0.449-0.123-0.894-0.253-1.306-0.459c-0.429-0.18-0.851-0.358-1.264-0.532c-0.391-0.225-0.772-0.454-1.163-0.662
			c-0.196-0.104-0.391-0.208-0.581-0.309c-0.177-0.126-0.35-0.25-0.521-0.372c-0.354-0.243-0.695-0.478-1.024-0.704
			c-0.358-0.205-0.622-0.486-0.915-0.719c-0.293-0.241-0.57-0.469-0.832-0.683c-0.561-0.412-0.962-0.856-1.337-1.199
			c-0.734-0.698-1.222-1.095-1.222-1.095s0.092,0.586,0.37,1.608C235.542,213.836,235.665,214.498,236.01,215.149z"/>
		<path fill="#9027E2" d="M250.422,318.957c60.26,0,111.145-45.048,118.362-104.786L368.658,209l-25.527,0.485
			c0.278-2.932,0.435-5.898,0.435-8.903c0-36.625-21.143-68.308-51.885-83.523c-1.254-6.672-3.329-13.697-6.058-20.252
			c-5.601-13.45-11.74-20.27-18.23-20.27h-6v31.548c-3.6-0.422-7.26-0.646-10.973-0.646c-4.342,0-8.612,0.304-12.797,0.879v-31.78
			h-6c-4.044,0-7.948,2.65-11.671,7.899c-23.418,6.189-44.605,19.498-60.447,38.151c-18.259,21.498-28.313,48.894-28.313,77.14
			C131.191,265.471,184.678,318.957,250.422,318.957z M334.499,200.582c0,2.979-0.171,5.917-0.47,8.816l-29.495-0.28
			c0.008-0.233,0.024-0.463,0.03-0.697c0.054-2.07,0.027-4.178-0.065-6.308c-0.008-0.176-0.007-0.35-0.016-0.526
			c-0.077-1.554-0.24-3.062-0.441-4.546c-0.284-2.097-0.676-4.119-1.154-6.055c-0.412-1.668-0.881-3.269-1.394-4.8
			c-0.675-2.014-1.412-3.911-2.181-5.655c-0.041-0.092-0.079-0.191-0.12-0.283c0.279-0.23,0.529-0.48,0.77-0.76
			c0.87-1.037,1.817-2.826,1.429-5.523c-0.008-0.061-0.009-0.116-0.019-0.177l-0.08-0.49l-1.974-5.808l-1.881-5.538l-2.486-7.317
			l-2.256-6.638l-1.613-4.749c0.975-2.765,1.628-6.011,1.86-9.812c0.061-0.997,0.1-2.022,0.1-3.098c0-0.85-0.032-1.731-0.073-2.62
			c-0.004-0.064-0.003-0.125-0.006-0.189C317.834,142.362,334.499,169.521,334.499,200.582z M275.157,281.634
			c0,0-1.574-13.824-1.718-21.327c-0.032-1.721-0.065-3.445-0.097-5.17c1.846-0.118,3.641-0.415,5.375-0.876
			c1.916-0.509,3.757-1.224,5.51-2.14c2.098-1.094,4.068-2.479,5.891-4.136c0.529-0.481,1.051-0.98,1.555-1.509
			c0.842-0.885,1.634-1.855,2.4-2.865c1.394-1.839,2.664-3.87,3.799-6.083c0.856-1.671,1.636-3.443,2.336-5.301
			c0.793-2.1,1.481-4.31,2.065-6.615c0.443-1.751,0.824-3.557,1.143-5.41c0.175-1.016,0.327-2.047,0.463-3.09l28.946,0.275
			C326.629,248.268,304.196,272.198,275.157,281.634C275.156,281.593,275.158,281.676,275.157,281.634z M290.951,170.443
			c0.326-0.416,2.943-2.143,2.943-2.143s0.34,1.314,0.592,2.363c0.456,1.898,0.489,1.728,0.325,1.728
			C292.713,172.391,291.141,170.694,290.951,170.443z M243.697,115.772c0.648-0.045,1.3-0.076,1.952-0.106
			c1.27-0.059,2.543-0.1,3.827-0.1c0.001,0,0.003,0,0.005,0c4.045,0,8.018,0.302,11.911,0.848v0.063v1.41
			c0,0.76-0.02,1.51-0.05,2.26c-2.082-0.492-4.164-0.815-6.221-0.96c-0.787-0.056-1.571-0.09-2.35-0.09h-6.52
			c-0.135,0-0.27,0.011-0.404,0.013c-2.504,0.03-5.021,0.348-7.533,0.918c-0.214,0.049-0.429,0.086-0.643,0.139
			c-0.03-0.76-0.05-1.52-0.05-2.28v-1.479c0.045-0.006,0.091-0.01,0.136-0.017c1.868-0.258,3.754-0.461,5.658-0.6
			C243.511,115.784,243.604,115.778,243.697,115.772z M214.43,94.43c-0.344,0.768-0.687,1.559-1.026,2.376
			c-2.869,6.892-5.023,14.305-6.255,21.279c-29.649,15.584-49.874,46.676-49.874,82.497c0,41.793,27.529,77.16,65.444,88.955
			c2.379,0.739,5.16,1.711,7.615,2.261c0.118-0.568,0.285-6.122,0.556-8.187c0.003-0.025,1.409-30.187,1.367-35.8
			c-0.002-0.196-0.002-0.395-0.004-0.591c-2.32,0.391-4.494,0.486-6.534,0.332c-1.9-0.145-3.682-0.51-5.348-1.075
			c-1.198-0.406-2.34-0.911-3.421-1.513c-0.822-0.457-1.602-0.983-2.357-1.544c-1.415-1.05-2.714-2.271-3.901-3.641
			c-1.389-1.602-2.632-3.393-3.722-5.351c-0.841-1.51-1.589-3.119-2.259-4.794c-0.772-1.931-1.435-3.955-1.989-6.046
			c-0.252-0.947-0.488-1.903-0.696-2.874c-0.148-0.693-0.287-1.391-0.414-2.093c-0.358-1.979-0.627-3.994-0.819-6.019
			c-0.152-1.613-0.259-3.233-0.311-4.848c-0.063-1.959-0.047-3.909,0.033-5.833c0.01-0.218,0.014-0.439,0.024-0.657
			c0.069-1.376,0.206-2.721,0.39-4.037c0.271-1.939,0.652-3.809,1.115-5.596c0.399-1.539,0.855-3.015,1.352-4.421
			c0.654-1.858,1.373-3.595,2.109-5.184c0.687-1.481,1.387-2.836,2.063-4.048c0.94-1.69,1.818-3.078,2.549-4.164
			c0.461-0.255,4.012-5.338,10.828-5.311c3.627,0.015,7.073,1.64,9.704,4.619c0.396,0.448,1.89,2.903,1.89,2.903l2.652-1.856
			l-1.745-3.626l3.22-3.808l0.121-2.905c0,0-1.779,0.751-3.081,1.612c-1.595,1.055-2.797,2.277-3.136,2.488l-0.309-0.187
			c-0.566-0.342-1.132-0.684-1.697-1.03c0.021-0.038,0.041-0.079,0.065-0.115c0.607-0.886,2.375-4.657,2.375-4.657l0.43-3.583l0,0
			c0,0-3.532,1.151-4.43,2.424c0,0-2.047,4.341-2.395,4.341c-0.372,0-1.005-0.188-1.861-0.472c0.003-0.13,0.055-2.324-0.053-3.321
			c-0.077-0.714-1.916-5.23-1.916-5.23s-1.629,4.633-1.701,5.345c-0.098,0.99-0.051,3.136-0.049,3.25
			c-0.866,0.243-2.442,0.663-2.442,0.663l-1.266-2.877c0,0-1.753-2.338-2.151-2.579c-0.134-0.081-1.832-1.256-1.832-1.256
			l0.118,3.838c0,0,0.697,2.358,1.497,3.704c0.104,0.174,0.191,0.357,0.287,0.536l-2.018,1.214c-0.204-0.181-0.406-0.361-0.606-0.54
			c-0.992-0.885-1.929-1.721-2.953-2.493c-0.108-0.082-0.224-0.14-0.34-0.195c0.145-0.434,0.293-0.876,0.447-1.335
			c0.547-1.62,1.156-3.375,1.801-5.158c0.719-1.988,1.481-4.004,2.25-5.894c1.128-2.771,2.268-5.265,3.302-6.979
			c0.02-0.033,0.043-0.062,0.065-0.091c0.012-0.017,0.022-0.034,0.033-0.051c-0.093-0.156-0.176-0.328-0.266-0.489
			c-0.354-0.635-0.686-1.307-0.984-2.03c-1.238-2.992-1.991-6.761-1.991-11.523c0-1.174,0.048-2.381,0.136-3.612
			c0.047-0.656,0.105-1.319,0.175-1.988c0.052-0.508,0.106-1.017,0.171-1.531c0.001-0.002,0.001-0.003,0.001-0.005
			c0.002-0.001,0.004-0.001,0.006-0.002c0.008-0.061,0.019-0.124,0.026-0.185c0.389-2.988,0.983-6.06,1.741-9.112
			c3.845-15.5,11.801-30.413,17.396-30.413c0,0,0,10.571,0,25.019c0,2.572,0,5.266,0,8.047c0,0.026,0,0.051,0,0.077
			c0,0,0.001,0,0.001,0v0.001v1.499c0,1.284,0.044,2.543,0.105,3.79c0.122,2.442,0.339,4.815,0.618,7.078
			c2.129-1.08,4.29-1.947,6.419-2.587c0.205-0.062,0.411-0.132,0.614-0.189c2.365-0.662,4.681-1.021,6.857-1.022
			c0.002,0,0.004,0,0.006,0h6.521c0.641,0,1.293,0.02,1.952,0.051c2.229,0.105,4.546,0.391,6.871,0.883
			c1.281,0.271,2.562,0.609,3.832,1.008c0.466,0.146,0.932,0.294,1.395,0.458c0.098-0.86,0.182-1.738,0.258-2.625
			c0.188-2.214,0.308-4.5,0.308-6.847c0-0.473,0-0.942,0-1.41c0-0.024,0-0.049,0-0.074c0-2.939,0-5.782,0-8.487
			c0-14.269,0-24.67,0-24.67c5.503,0,13.279,14.389,17.196,29.588c0.875,3.397,1.555,6.833,1.976,10.159
			c0,0.001,0,0.002,0.001,0.003c0,0,0,0.001,0.001,0.001c0.007,0.052,0.011,0.104,0.018,0.155c0.193,1.55,0.325,3.076,0.397,4.566
			c0.001,0.024,0.002,0.049,0.004,0.073c0.037,0.777,0.063,1.547,0.063,2.3c0,5.569-1.023,9.789-2.656,12.985
			c0.254,0.489,0.5,0.975,0.743,1.458c1.297,2.585,2.438,5.076,3.438,7.435c0.522,1.233,1.005,2.427,1.454,3.583
			c0.287,0.74,0.56,1.461,0.818,2.166c0.734,1.998,1.35,3.836,1.87,5.501c0,0-5.375,3.792-5.721,3.792
			c-0.285,0-0.939-0.611-1.554-1.231c0.097-0.176,1.396-2.519,1.873-3.577c0.261-0.583,0.396-4.911,0.396-4.911
			s-3.152,2.728-3.514,3.156c-0.381,0.448-1.021,1.763-1.112,1.932c-0.831,1.534-1.125,2.03-1.431,2.03
			c-0.33,0-0.917-0.187-1.717-0.469c0.002-0.077,0.005-0.155,0.007-0.232c0.025-0.806-0.032-2.978-0.149-3.833
			c-0.103-0.749-1.852-4.503-1.852-4.503s-1.81,3.764-1.899,4.503c-0.104,0.845,0.141,3.123,0.164,3.922
			c0.002,0.064,0.004,0.128,0.006,0.192c-0.76,0.214-1.324,0.354-1.671,0.354c-0.369,0-2.171-3.975-2.582-4.469
			c-0.367-0.44-3.917-2.583-3.917-2.583s-0.216,3.522,0.048,4.083c0.534,1.141,1.734,2.877,2.36,4.019
			c0.089,0.161,0.178,0.324,0.267,0.487l-1.838,1.18c-0.104-0.091-1.522-1.509-3.255-2.686c-1.26-0.855-2.998-1.583-2.998-1.583
			l-0.043,2.876c0,0,3.429,3.827,3.564,3.944c-0.048,0.089-2.438,3.43-2.438,3.43l2.606,1.833c0,0,4.702-7.645,11.785-7.417
			c3.701,0.119,7.029,1.102,10.45,4.949c0.421,0.474,2.515,2.769,4.448,7.464c0.646,1.568,2.183,4.956,2.794,6.741
			c0.466,1.359,0.895,2.78,1.269,4.259c0.435,1.721,0.791,3.52,1.047,5.381c0.178,1.287,0.312,2.602,0.379,3.945
			c0.01,0.187,0.013,0.377,0.021,0.564c0.08,1.849,0.097,3.723,0.044,5.606c-0.043,1.555-0.129,3.114-0.267,4.668
			c-0.172,1.951-0.425,3.89-0.75,5.803c-0.274,1.62-0.6,3.221-0.989,4.787c-0.003,0.01-0.006,0.021-0.008,0.031
			c-0.507,2.031-1.111,4.005-1.817,5.895c-0.614,1.643-1.313,3.214-2.084,4.711c-1.001,1.943-2.131,3.754-3.407,5.383
			c-1.096,1.399-2.3,2.662-3.608,3.773c-1.631,1.387-3.432,2.526-5.406,3.38c-0.36,0.156-0.719,0.317-1.092,0.454
			c-1.256,0.46-2.586,0.793-3.978,1.014c-1.472,0.232-3.024,0.317-4.652,0.258c-0.624-0.023-1.26-0.07-1.908-0.139
			c-0.412-0.044-0.818-0.076-1.24-0.139c-0.021,0.795-0.04,1.596-0.058,2.4c-0.076,3.597-0.111,7.278-0.091,10.919
			c0.019,3.437,0.089,6.834,0.229,10.083c0.199,4.617,1.34,19.677,1.851,21.092c0.049,0.08,3.614-0.808,4.851-1.133
			c34.63-9.086,61.373-37.61,67.896-73.203l18.195,0.173c-8.65,53.501-55.08,93.309-109.794,93.309
			c-61.333,0-111.23-49.897-111.23-111.23C139.191,151.384,169.962,109.515,214.43,94.43z M208.333,144.336l-0.968,2.545
			l-2.502,6.58l-2.784,7.322l-2.125,5.588l-2.211,5.815l-0.101,0.6c-0.011,0.066-0.011,0.126-0.021,0.191
			c-0.383,2.7,0.572,4.514,1.451,5.559c0.319,0.37,0.68,0.71,1.069,0.99c-0.052,0.113-0.102,0.237-0.153,0.351
			c-0.809,1.789-1.591,3.746-2.308,5.835c-0.542,1.579-1.037,3.235-1.474,4.964c-0.505,2.002-0.919,4.096-1.218,6.271
			c-0.208,1.514-0.378,3.052-0.457,4.638c-0.011,0.208-0.01,0.412-0.019,0.619c-0.094,2.208-0.113,4.391-0.051,6.535
			c0.054,1.842,0.174,3.652,0.34,5.434c0.215,2.308,0.52,4.56,0.916,6.745c0.348,1.911,0.767,3.765,1.248,5.564
			c0.634,2.367,1.371,4.637,2.227,6.776c0.758,1.895,1.606,3.685,2.53,5.373c1.222,2.23,2.578,4.276,4.074,6.093
			c0.501,0.607,1.014,1.195,1.544,1.752c0.863,0.904,1.777,1.717,2.715,2.484c1.936,1.587,4.022,2.879,6.237,3.867
			c1.838,0.818,3.757,1.443,5.753,1.836c0.886,0.174,1.783,0.314,2.695,0.402c-0.305,4.946-0.613,10.03-0.912,15.043
			c-0.229,3.849-0.451,7.655-0.66,11.318c-1.075-0.35-2.141-0.721-3.196-1.111c-3.126-1.157-6.165-2.492-9.105-3.994
			c-2.423-1.237-4.771-2.601-7.053-4.057c-2.804-1.789-5.493-3.736-8.06-5.831c-2.105-1.719-4.135-3.524-6.064-5.434
			c-2.359-2.333-4.583-4.802-6.657-7.396c-1.693-2.117-3.274-4.327-4.763-6.604c-1.81-2.77-3.462-5.649-4.944-8.629
			c-1.204-2.42-2.308-4.899-3.281-7.444c-1.176-3.076-2.177-6.238-2.994-9.474c-0.658-2.608-1.189-5.266-1.601-7.963
			c-0.493-3.235-0.809-6.527-0.927-9.872c-0.035-1.009-0.062-2.02-0.062-3.038c0-1.702,0.059-3.389,0.157-5.065
			c0.196-3.33,0.583-6.608,1.151-9.824c0.473-2.673,1.066-5.303,1.783-7.884c0.885-3.191,1.956-6.304,3.193-9.332
			c1.02-2.497,2.155-4.934,3.399-7.306c1.528-2.912,3.218-5.725,5.062-8.426c1.512-2.215,3.124-4.354,4.832-6.412
			c2.088-2.514,4.316-4.908,6.676-7.166c1.928-1.843,3.941-3.596,6.034-5.253c2.548-2.018,5.217-3.888,7.989-5.608
			c0.437-0.271,0.87-0.547,1.313-0.811c-0.047,0.93-0.076,1.845-0.078,2.734c0,0.035-0.003,0.072-0.003,0.106
			C205.973,136.056,206.873,140.646,208.333,144.336z M205.243,171.205c0,0,0.126-0.415,0.35-1.129
			c0.043-0.138,0.09-0.287,0.14-0.447c0.101-0.32,0.215-0.683,0.343-1.083c0.006-0.02,0.014-0.042,0.02-0.063
			c0.589,0.545,1.188,1.082,1.816,1.63c0.187,0.163,0.187,0.161,0.375,0.327c-0.003,0.007,0.003-0.007,0,0
			c0,0-1.052,1.95-3.218,1.95C204.769,172.391,205.221,171.34,205.243,171.205z"/>
	</g>
</g>
</svg>
